# xmcd CD database file
# Copyright (C) 1997 Ti Kan
#
# Track frame offsets:
#  150
#  16556
#  31617
#  45942
#  62741
#  78253
#  93762
#  108808
#  122937
#  136351
#  151976
#  174842
#  194263
#
# Disc length: 2740 seconds
#
# Revision: 2
# Processed by: cddbd v1.4PL0 Copyright (c) Steve Scherf et al.
# Submitted via: Gronk 1.4
#
DISCID=890ab20d
DTITLE=Mary Cutrufello - Who to Love and When to Leave
DYEAR=1900
DGENRE=country
TTITLE0=Johnson Motel
TTITLE1=Lovin' You Beats All I've Ever Seen
TTITLE2=A Promise I Made
TTITLE3=Man That He's Become
TTITLE4=I Didn't Even Get to Lose You
TTITLE5=Sweet Promise of Love
TTITLE6=Legends of the Horseshoe Lounge
TTITLE7=Dallas
TTITLE8=Walk of Shame
TTITLE9=Black Maria
TTITLE10=Thunderbird Town
TTITLE11=Sad Songs and Waltzes Revisited
TTITLE12=Love's to Blame
EXTD=
EXTT0=
EXTT1=
EXTT2=
EXTT3=
EXTT4=
EXTT5=
EXTT6=
EXTT7=
EXTT8=
EXTT9=
EXTT10=
EXTT11=
EXTT12=
PLAYORDER=
